<svg xmlns="http://www.w3.org/2000/svg" width="36" height="36" viewBox="0 0 36 36" fill="none"><g clip-path="url(#clip0_3523_23487)"><path d="M18.0768 8.474C20.6222 8.474 22.94 9.44848 24.6775 11.0446L30.2155 4.77929C27.0063 1.81272 22.7149 0 18.0001 0C11.0193 0 4.97116 3.97654 1.98541 9.78555L8.7504 15.3511C9.97999 11.3683 13.6903 8.4741 18.0768 8.4741V8.474Z" fill="white"></path><path d="M8.31715 18.2336C8.31715 17.2301 8.46904 16.2621 8.7503 15.351L1.98541 9.78552C0.719174 12.2489 0 15.0396 0 18C0 21.3029 0.893672 24.3953 2.44632 27.0561L8.89207 21.5382C8.52065 20.5061 8.31715 19.3937 8.31715 18.2337V18.2336Z" fill="white"></path><path d="M36 18C36 16.5837 35.8364 15.2055 35.5271 13.8834L17.9999 14.0256V22.3735L26.9788 22.2398C26.1966 23.9753 24.9197 25.4379 23.3305 26.4555L29.0932 32.1699C33.2962 28.8748 36 23.7548 36 18.0001V18Z" fill="white"></path><path d="M18.0767 27.9932C13.8467 27.9932 10.2463 25.3016 8.89204 21.5381L2.44629 27.056C5.56684 32.4038 11.3617 36 18 36C22.1865 36 26.0357 34.5669 29.0933 32.1698L23.3306 26.4554C21.8135 27.4269 20.012 27.9932 18.0768 27.9932H18.0767Z" fill="white"></path></g><defs><clipPath id="clip0_3523_23487"><rect width="36" height="36" fill="white"></rect></clipPath></defs></svg>